<svg width="18" height="23" viewBox="0 0 18 23" xmlns="http://www.w3.org/2000/svg">
<path fill-rule="evenodd" clip-rule="evenodd" d="M9 22.6028L9.65773 22.0285C15.1887 17.199 18 12.982 18 9.27527C18 4.02593 13.9029 0.275269 9 0.275269C4.09705 0.275269 0 4.02593 0 9.27527C0 12.982 2.81131 17.199 8.34227 22.0285L9 22.6028ZM9 19.9387C4.30661 15.7088 2 12.1245 2 9.27527C2 5.17187 5.16411 2.27527 9 2.27527C12.8359 2.27527 16 5.17187 16 9.27527C16 12.1245 13.6934 15.7088 9 19.9387ZM9 4.27527C11.7614 4.27527 14 6.51384 14 9.27527C14 12.0367 11.7614 14.2753 9 14.2753C6.23858 14.2753 4 12.0367 4 9.27527C4 6.51384 6.23858 4.27527 9 4.27527ZM6 9.27527C6 7.61841 7.34315 6.27527 9 6.27527C10.6569 6.27527 12 7.61841 12 9.27527C12 10.9321 10.6569 12.2753 9 12.2753C7.34315 12.2753 6 10.9321 6 9.27527Z"/>
</svg>
