<svg xmlns="http://www.w3.org/2000/svg" viewBox="0 0 381.95 131.77">
        <path fill="#999" d="M0,125.77l4.5-20.4h12.93l-.34,1.59H5.9l-4.16,18.81H0Z"/>
        <path fill="#999"
              d="M15.81,123.27l-1.8,8.13h-1.59l4.53-20.4h1.59l-.49,2.23c1.19-1.56,2.97-2.6,5.08-2.6,3.36,0,5.75,2.26,5.75,6.09,0,4.92-3.09,9.42-7.74,9.42-2.45,0-4.31-1.19-5.32-2.87ZM27.12,117c0-3.03-1.77-4.92-4.46-4.92-2.08,0-3.98,1.31-5.01,2.84l-1.56,7.09c.73,1.47,2.51,2.69,4.89,2.69,3.73,0,6.15-3.82,6.15-7.71Z"/>
        <path fill="#999"
              d="M29.38,129.93c.31.15.86.28,1.44.28.8,0,1.44-.37,2.32-1.68l1.74-2.66-2.87-14.86h1.71l2.48,12.9,8.23-12.9h1.87l-11.65,18.01c-1.16,1.83-2.45,2.75-4.13,2.75-.61,0-1.28-.12-1.74-.31l.61-1.53Z"/>
        <path fill="#999"
              d="M59.93,114.31c0,2.78-3.12,3.94-4.98,4.07,1.5.21,3.52,1.19,3.52,3.3,0,2.78-3.27,4.46-6.79,4.46-3.09,0-5.26-.98-6.45-2.57l1.04-.95c1.19,1.44,3.03,2.14,5.44,2.14,2.75,0,5.11-1.28,5.11-3.18,0-1.74-2.08-2.63-4.46-2.63h-3.55l.31-1.35h3.42c3.15,0,5.63-.95,5.63-3.18,0-1.56-1.5-2.42-4.04-2.42-2.35,0-4.25.64-5.96,1.93l-.76-1.1c1.87-1.41,4.1-2.2,6.82-2.2,3.82,0,5.72,1.41,5.72,3.67Z"/>
        <path fill="#999"
              d="M62.13,119.66c0-4.68,3.46-9.02,8.13-9.02,3.98,0,6.51,2.57,6.51,6.48,0,4.68-3.46,9.02-8.13,9.02-3.98,0-6.51-2.57-6.51-6.48ZM75.03,117.18c0-3.09-1.77-5.11-4.8-5.11-3.7,0-6.36,3.7-6.36,7.52,0,3.09,1.77,5.11,4.8,5.11,3.7,0,6.36-3.7,6.36-7.52Z"/>
        <path fill="#999" d="M89.01,125.77l3.03-13.36h-8.35l-3.06,13.36h-1.59l3.36-14.77h11.56l-3.36,14.77h-1.59Z"/>
        <path fill="#999"
              d="M96.13,119.63c0-4.92,3.61-8.99,8.19-8.99,3.94,0,6.27,2.78,6.27,6.39,0,.64-.15,1.5-.24,1.87h-12.48c-.03.18-.06.58-.06.86,0,2.72,1.8,5.01,5.41,5.01,1.5,0,3.18-.52,4.46-1.59l.61,1.16c-1.31,1.01-3.21,1.8-5.14,1.8-4.43,0-7.03-2.66-7.03-6.51ZM109.04,117.64c.03-.15.03-.49.03-.67,0-2.87-1.74-4.95-4.92-4.95-2.97,0-5.6,2.6-6.12,5.63h11.01Z"/>
        <path fill="#999"
              d="M115.03,123.27l-1.8,8.13h-1.59l4.53-20.4h1.59l-.49,2.23c1.19-1.56,2.97-2.6,5.08-2.6,3.36,0,5.75,2.26,5.75,6.09,0,4.92-3.09,9.42-7.74,9.42-2.45,0-4.31-1.19-5.32-2.87ZM126.34,117c0-3.03-1.77-4.92-4.46-4.92-2.08,0-3.98,1.31-5.01,2.84l-1.56,7.09c.73,1.47,2.51,2.69,4.89,2.69,3.73,0,6.15-3.82,6.15-7.71Z"/>
        <path fill="#999"
              d="M130.8,119.63c0-4.92,3.61-8.99,8.19-8.99,3.94,0,6.27,2.78,6.27,6.39,0,.64-.15,1.5-.24,1.87h-12.48c-.03.18-.06.58-.06.86,0,2.72,1.8,5.01,5.41,5.01,1.5,0,3.18-.52,4.46-1.59l.61,1.16c-1.31,1.01-3.21,1.8-5.14,1.8-4.43,0-7.03-2.66-7.03-6.51ZM143.71,117.64c.03-.15.03-.49.03-.67,0-2.87-1.74-4.95-4.92-4.95-2.97,0-5.6,2.6-6.12,5.63h11.01Z"/>
        <path fill="#999"
              d="M147.56,125.77l3.24-14.77h6.67c2.2,0,4.04,1.07,4.04,3.27,0,1.9-1.22,3.55-3.33,3.98,1.19.46,2.11,1.68,2.11,3.12,0,2.51-1.87,4.4-5.01,4.4h-7.71ZM155.27,124.34c1.96,0,3.36-1.31,3.36-3.06,0-1.35-.95-2.42-2.69-2.42h-5.29l-1.19,5.47h5.81ZM156.79,117.46c1.96,0,3-1.41,3-2.91s-1.22-2.14-2.81-2.14h-4.89l-1.13,5.05h5.84Z"/>
        <path fill="#999"
              d="M164.65,119.66c0-4.68,3.46-9.02,8.13-9.02,3.98,0,6.51,2.57,6.51,6.48,0,4.68-3.46,9.02-8.13,9.02-3.98,0-6.51-2.57-6.51-6.48ZM177.56,117.18c0-3.09-1.77-5.11-4.8-5.11-3.7,0-6.36,3.7-6.36,7.52,0,3.09,1.77,5.11,4.8,5.11,3.7,0,6.36-3.7,6.36-7.52Z"/>
        <path fill="#999"
              d="M195.78,114.31c0,2.78-3.12,3.94-4.98,4.07,1.5.21,3.52,1.19,3.52,3.3,0,2.78-3.27,4.46-6.79,4.46-3.09,0-5.26-.98-6.45-2.57l1.04-.95c1.19,1.44,3.03,2.14,5.44,2.14,2.75,0,5.11-1.28,5.11-3.18,0-1.74-2.08-2.63-4.46-2.63h-3.55l.31-1.35h3.42c3.15,0,5.63-.95,5.63-3.18,0-1.56-1.5-2.42-4.04-2.42-2.35,0-4.25.64-5.96,1.93l-.76-1.1c1.87-1.41,4.1-2.2,6.82-2.2,3.82,0,5.72,1.41,5.72,3.67Z"/>
        <path fill="#999"
              d="M207.86,125.77l-4.43-7.12-3.42,2.69-.98,4.43h-1.59l3.27-14.77h1.59l-1.87,8.32,10.46-8.32h2.23l-8.38,6.67,5.08,8.1h-1.96Z"/>
        <path fill="#999"
              d="M212.87,125.77l3.24-14.77h1.59l-2.72,12.29,11.13-12.29h1.56l-3.24,14.77h-1.59l2.72-12.48-11.16,12.48h-1.53Z"/>
        <path fill="#999" d="M247.27,125.77l3.03-13.36h-8.35l-3.06,13.36h-1.59l3.36-14.77h11.56l-3.36,14.77h-1.59Z"/>
        <path fill="#999"
              d="M254.36,119.66c0-4.68,3.46-9.02,8.13-9.02,3.98,0,6.51,2.57,6.51,6.48,0,4.68-3.46,9.02-8.13,9.02-3.98,0-6.51-2.57-6.51-6.48ZM267.26,117.18c0-3.09-1.77-5.11-4.8-5.11-3.7,0-6.36,3.7-6.36,7.52,0,3.09,1.77,5.11,4.8,5.11,3.7,0,6.36-3.7,6.36-7.52Z"/>
        <path fill="#999"
              d="M279.25,125.77l4.5-20.4h7.16c3.21,0,5.35,2.38,5.35,5.11,0,3.15-2.14,6.82-7.55,6.82h-5.81l-1.9,8.47h-1.74ZM288.91,115.71c3.64,0,5.47-2.42,5.47-5.11,0-1.93-1.59-3.64-3.76-3.64h-5.47l-1.93,8.75h5.69Z"/>
        <path fill="#999"
              d="M296.83,119.66c0-4.68,3.46-9.02,8.13-9.02,3.98,0,6.51,2.57,6.51,6.48,0,4.68-3.46,9.02-8.13,9.02-3.98,0-6.51-2.57-6.51-6.48ZM309.74,117.18c0-3.09-1.77-5.11-4.8-5.11-3.7,0-6.36,3.7-6.36,7.52,0,3.09,1.77,5.11,4.8,5.11,3.7,0,6.36-3.7,6.36-7.52Z"/>
        <path fill="#999"
              d="M314.32,119.6c0-4.86,3.58-8.96,8.19-8.96,2.54,0,4.28.98,5.29,2.69l-1.22.92c-.86-1.5-2.39-2.17-4.01-2.17-4.07,0-6.57,3.67-6.57,7.55,0,3.36,2.17,5.08,5.05,5.08,1.65,0,3.06-.76,4.01-1.9l.92,1.1c-1.28,1.35-2.84,2.23-5.08,2.23-3.79,0-6.57-2.35-6.57-6.54Z"/>
        <path fill="#999"
              d="M329.43,119.6c0-4.86,3.58-8.96,8.19-8.96,2.54,0,4.28.98,5.29,2.69l-1.22.92c-.86-1.5-2.39-2.17-4.01-2.17-4.07,0-6.57,3.67-6.57,7.55,0,3.36,2.17,5.08,5.05,5.08,1.65,0,3.06-.76,4.01-1.9l.92,1.1c-1.28,1.35-2.84,2.23-5.08,2.23-3.79,0-6.57-2.35-6.57-6.54Z"/>
        <path fill="#999"
              d="M343.95,125.77l3.24-14.77h1.59l-2.72,12.29,11.13-12.29h1.56l-3.24,14.77h-1.59l2.72-12.48-11.16,12.48h-1.53Z"/>
        <path fill="#999"
              d="M360.46,125.77l3.24-14.77h1.59l-2.72,12.29,11.13-12.29h1.56l-3.24,14.77h-1.59l2.72-12.48-11.16,12.48h-1.53Z"/>
        <path fill="#21435e"
              d="M381.68,60.55c-1.54,7.02-5.94,11.33-13.3,12.58-2.3.37-5.92.2-8.92.23-1.21.01-1.74.64-1.97,1.8-.9,4.55-1.91,9.08-2.86,13.62-.5,2.38-.49,2.21-2.99,2.21-1.56,0-2.68,0-4.85,0-1.91,0-2.26-.4-1.87-2.21,2.9-13.55,5.81-27.1,8.68-40.66.25-1.17.77-1.51,1.97-1.51,4.71-.02,8.83,0,13.61,0,2.17.09,4.41.47,6.45,1.34,3.49,1.49,5.67,3.84,6.18,7.71.32,2.44-.03,4.38-.14,4.9ZM359.82,64.3c2.46,0,4.79.17,7.09-.05,1.83-.17,3.47-1.08,4.54-2.71,1.91-2.91.66-5.5-2.8-5.7-1.98-.11-3.98,0-5.97-.07-.89-.03-1.12.34-1.28,1.15-.46,2.44-1.03,4.86-1.58,7.38Z"/>
        <path fill="#21435e"
              d="M198.93,73.48c2.81-3.18,5.6-6.37,8.42-9.54,4.82-5.43,9.68-10.83,14.48-16.28.66-.75,1.36-1.05,2.36-1.05,2,0,3.85,0,5.78,0,2.15,0,2.54.46,2.1,2.53-1.51,7.08-3.03,14.16-4.55,21.24-1.32,6.2-2.64,12.39-3.95,18.59-.42,1.96-.44,2-2.44,2.01s-3.54,0-5.46,0-2.3-.52-1.88-2.42c1.74-8.02,3.49-16.03,5.24-24.04.07-.33.09-.66.17-1.23-.39.36-.64.54-.84.77-7.64,8.69-15.28,17.39-22.95,26.06-.42.47-1.14.89-2.15.88-1.97-.02-3.1,0-5.57,0-2.06-.01-2.32-.44-1.89-2.47,1.33-6.25,2.68-12.5,4.02-18.75,1.54-7.19,3.11-14.38,4.58-21.58.26-1.28.75-1.64,2-1.58,1.97,0,3.77-.01,5.65,0s2.32.47,1.9,2.37c-1.72,7.73-5.26,23.97-5.31,24.35.01.24.14.23.3.15Z"/>
        <path fill="#21435e"
              d="M158.75,82.01c6.14,0,12.11,0,18.08,0,.45,0,.93-.06,1.36.03.95.21,1.5.74,1.25,1.82-.44,1.93-.87,3.87-1.26,5.81-.19.95-.72,1.32-1.66,1.31-2.22-.02-4.44,0-6.65,0-6.6,0-13.19,0-19.79,0-2.63,0-2.82-.23-2.29-2.71,2.85-13.4,5.72-26.79,8.54-40.19.23-1.11.65-1.5,1.78-1.49,8.93.04,17.86.01,26.78.03,1.97,0,2.33.46,1.93,2.33-.35,1.66-.66,3.27-1.04,4.99-.31,1.39-.93,1.74-2.19,1.73-5.57-.03-11.15-.01-16.72-.01q-2.54,0-3.06,2.51c-.35,1.66-.6,3.35-1.09,4.97-.37,1.22.12,1.29,1.1,1.28,4.44-.04,8.87-.02,13.31-.01,2.42,0,2.73.39,2.21,2.69-.35,1.55-.77,3.08-.99,4.65-.18,1.29-.96,1.64-2.21,1.63-4.66-.05-8.46,0-13.68-.02-1.33,0-2.05.32-2.27,1.65-.38,2.28-.93,4.54-1.46,7.02Z"/>
        <path fill="#21435e" d="M321.96,64.4c2.62,0,5.05,0,7.49,0,2.56,0,5.12-.02,7.68,0,1.72.02,2.13.54,1.8,2.21-.34,1.72-.72,3.42-1.08,5.15-.27,1.28-.86,1.64-2.08,1.63-4.66-.05-9.33.03-13.99-.05-1.31-.02-1.79.2-2.11,1.68-.48,2.26-.93,4.53-1.46,6.99,1.61,0,3.07,0,4.53,0,4.66,0,9.32,0,13.99,0,2.04,0,2.43.51,2,2.46-.35,1.6-.69,3.23-1.02,4.81-.29,1.39-.91,1.72-2.18,1.71-5.4-.04-23.03,0-26.44-.02-2,0-2.33-.4-1.93-2.31,2.87-13.56,5.76-27.12,8.62-40.69.21-.98.69-1.38,1.78-1.38,8.98.04,17.89,0,26.88,0,1.84,0,2.26.54,1.88,2.28-.36,1.66-.75,3.41-1.06,4.98-.26,1.52-.97,1.59-2.28,1.58-4.49-.04-8.99,0-13.48,0-1.54,0-3.12-.06-4.65.04-.43.03-1.09.49-1.34,1.56-.6,2.58-.98,4.58-1.56,7.36Z"/>
        <path fill="#21435e" d="M254.43,91.69c-3.48-.1-5.22-.44-6.74-1-8.06-2.95-12.71-9.75-11.71-18.67,1.18-10.5,6.2-18.63,15.82-23.45,5.91-2.96,12.14-3.63,18.49-1.31,2.89,1.06,5.28,2.81,7.22,5.21.72.89.82,1.51-.15,2.25-1.67,1.27-3.29,2.61-4.92,3.94-.64.52-1.22.81-1.91.06-3.94-4.26-8.71-4.47-13.76-2.56-7.22,2.73-12.3,11.92-10.74,19.15.9,4.16,4.01,6.79,8.25,7.05,3.87.23,7.26-.98,10.28-3.35,1.39-1.09,1.95-1.03,3.08.36,1.07,1.32,2.14,2.65,3.17,4,.98,1.28.86,2.04-.46,2.95-4.78,3.3-10,5.54-15.94,5.37Z"/>
        <path fill="#21435e" d="M290.47,55.45c-2.3,0-4.48.02-6.64,0-1.76-.02-2.16-.45-1.83-2.13.32-1.67.79-3.65,1.12-5.32.19-.98.67-1.42,1.74-1.42,7.9.03,15.81,0,23.71.03,1.59,0,2.06.58,1.76,2.12-.32,1.67-.83,3.65-1.15,5.31-.2,1.05-.66,1.41-1.82,1.41-2.13,0-3.87,0-5.98.01-1.13,0-1.45.42-1.65,1.37-2.27,10.74-4.57,21.48-6.85,32.22-.41,1.92-.4,1.93-2.29,1.93-1.76,0-3.53.01-5.29,0-1.98-.02-2.33-.43-1.92-2.35,1.62-7.64,3.27-15.27,4.9-22.91.72-3.36,1.45-6.77,2.19-10.27Z"/>
        <path fill="#21435e" d="M212.43,33.78c1.51.05,1.6.28,1.44,1.71-.21,1.96,2.4,2.9,4.17,1.77.81-.52,1.39-1.33,1.79-2.21.46-1.01.61-1.28,1.62-1.29,1.49,0,3.31,0,4.78.02s1.53.9,1.19,2.39c-1.69,6.99-10.07,11.51-17.31,7.86-4.06-2.04-4.56-5.63-3.86-9.02.08-.41.44-1.23,1.51-1.25.84-.01,3.92-.01,4.66.01Z"/>
        <path fill="#21435e" d="M70.7,47.64c-.68-3.66-1.37-7.32-2.03-10.98-.5-2.81-.96-5.62-1.49-8.72-2.48,3.9-4.81,7.57-7.15,11.23-10.52,16.52-21.28,33.28-31.75,49.83-.91,1.44-1.98,2-3.6,1.99-4.66-.04-9.32-.01-13.98-.01-.34,0-.68,0-1.02-.05-2.52-.34-3.41-2.25-2.04-4.42,6.67-10.52,13.58-21.27,20.26-31.78C38.89,37.45,49.89,20.15,60.89,2.87c.62-.97,1.3-1.91,1.95-2.86,5.6,0,10.68,0,16.26,0,.09,0,.39.03.47.05,1.89.41,2.76,1.59,3.26,3.98.1.49.21,1.02.31,1.52,1.1,5.51,2.33,11.64,3.43,17.16-.29.53-.37.61-.68,1.11-3.14,5.11-6.35,10.19-9.48,15.31-1.08,1.77-2.01,3.63-3,5.44.02-.01.03.03.02.02,2.59-2.75,5.2-5.49,7.78-8.25,5.59-6,11.14-12.03,16.73-18.03C103.15,12.73,114.44.49,114.83,0c1.37,0,1.73,0,3.09,0-.66.33-.94.91-1.4,1.77-2.71,4.97-8.7,15.78-8.97,16.34.72.02,1.04.01,1.43.02.37,0,.5.01.8-.17.29-.17.51-.62.76-1.14,2.73-5.52,5.67-11.13,8.48-16.59,1.46.36,1.85,1.56,2.1,2.78,1.39,6.79,2.78,13.58,4.16,20.37,2.33,11.43,4.68,22.86,7,34.29,2.02,9.94,4.03,19.88,6.02,29.82.52,2.59-.41,3.24-2.51,3.31-5.17.17-10.29.2-15.46.18-.25,0-.95-.25-1.16-.42-.76-.62-1.1-1.58-1.28-2.46-1.92-9.15-3.72-18.32-5.58-27.48-2.14-10.6-4.33-21.18-6.43-31.79-.22-1.09-.69-.73-1.27-.58,1.45-2.85,2.9-5.69,4.37-8.56-.8-.03-1.43-.08-1.83-.07-.52.02-.74.33-1.33,1.37-1.59,2.8-3.1,5.65-4.66,8.46-.43.77-.83,1.56-1.37,2.57h2.64c-.46.79-.88,1.5-1.34,2.29-.63,0-1.14,0-1.78,0-.5,0-.82.13-1.17.73-2.33,4.18-4.64,8.38-6.93,12.58-6.84,0-13.68,0-20.52,0Z"/>
        <path fill="#3c97a2" d="M73.41,44.57c1-1.82,1.92-3.68,3-5.44,3.13-5.12,6.34-10.19,9.48-15.31.31-.5,13.65-22.34,14.24-23.29.39-.63,1.13-.53,1.22-.53,4.34,0,9.14,0,13.48,0-.33.5-11.69,12.72-16.89,18.31-5.59,6-11.15,12.03-16.73,18.03-2.58,2.77-5.19,5.5-7.78,8.25l-.02-.02Z"/>
        <path fill="#3c97a2" d="M105.39,26.74c.21.79.28,1,.49,2.09,2.1,10.61,4.29,21.19,6.43,31.79,1.85,9.16,3.65,18.33,5.58,27.48.19.88.69,2.32,2.24,2.86-.39.03-1.43,0-1.83,0-14.67.05-29.26.03-43.93.03-1.55,0-1.57-1.02-.71-2.7,2.85-5.54,5.3-10.28,8.15-15.82.8-1.55.82-1.59.19-1.59-.45,0-2.13.01-2.58,0-1.17,0-1.49.35-1.98,1.24-3.13,5.72-6.4,11.55-9.52,17.28-.62,1.13-1.28,1.59-2.63,1.58-10.86-.05-21.73-.01-32.59,0-.5,0-1,0-1.93,0,.55-.65.87-1.06,1.22-1.44,12.7-13.7,25.47-27.55,38.18-41.24.19-.21.34-.44.51-.67,6.84,0,13.68,0,20.52,0,.45,0,1.62,0,2.07,0,1.09,0,1.37-.41,2.03-1.82,1.58-3.36,5.5-10.96,5.78-11.5.46-.79.88-1.5,1.34-2.29.73-1.26,2.25-4,2.95-5.28ZM79.93,67.75c1.1,0,2.68,0,3.43,0,.92,0,1.12-.29,1.72-1.5,2.41-4.81,4.84-9.57,7.3-14.35.28-.54.63-1.23.95-1.89-.59,0-2.38-.06-2.77-.06-.72,0-1.11.51-1.93,2.03-1.37,2.53-2.78,5.05-4.18,7.58-1.45,2.61-2.88,5.23-4.52,8.21Z"/>
        <path stroke-width="0" fill="white" d="M81.83,72.47c-2.85,5.55-5.3,10.28-8.15,15.82-.8,1.56-.84,2.55.4,2.68h-8.35c1.08-.09,1.66-.56,2.21-1.57,3.11-5.72,6.39-11.56,9.52-17.28.49-.9.81-1.25,1.98-1.24.45,0,2.13-.01,2.59-.01.63,0,.61.04-.19,1.59Z"/>
        <path stroke-width="0" fill="white" d="M110.56,16.83c-.25.51-.48.96-.76,1.13-.3.19-.43.18-.8.17-.39,0-.71,0-1.43-.02.28-.56,6.26-11.37,8.97-16.34.46-.85.73-1.43,1.37-1.76.28.03.66.09,1.13.22-2.81,5.46-5.75,11.07-8.47,16.59Z"/>
        <path stroke-width="0" fill="white" d="M95.33,45.81c-.66,1.41-.94,1.82-2.03,1.82-.44,0-1.61,0-2.07,0,2.29-4.2,4.6-8.4,6.93-12.58.35-.6.67-.73,1.17-.73.64,0,1.15,0,1.78,0-.28.54-4.2,8.14-5.78,11.5Z"/>
        <path stroke-width="0" fill="white" d="M105.4,26.74c-.7,1.28-2.22,4.02-2.95,5.28h-2.64c.54-1.01.94-1.79,1.38-2.56,1.56-2.82,3.07-5.66,4.66-8.46.59-1.03.8-1.35,1.33-1.36.4-.02,1.03.03,1.83.07-1.2,2.36-2.4,4.71-3.6,7.05Z"/>
        <path stroke-width="0" fill="white" d="M79.94,67.75c1.1,0,2.68,0,3.43,0,.92,0,1.12-.29,1.72-1.5,2.41-4.81,4.84-9.57,7.3-14.35.28-.54.63-1.23.95-1.89-.59,0-2.38-.06-2.77-.06-.72,0-1.11.51-1.93,2.03-1.37,2.53-2.78,5.05-4.18,7.58-1.45,2.61-2.88,5.23-4.52,8.21Z"/>
</svg>