<svg width="20" height="16" viewBox="0 0 20 16" fill="none" xmlns="http://www.w3.org/2000/svg">
<path d="M20 12.1538C20 13.3333 19.6169 14.2821 18.8506 15C18.0843 15.6667 17.1137 16 15.9387 16C14.5594 16 13.41 15.5385 12.4904 14.6154C11.622 13.6923 11.1877 12.3333 11.1877 10.5385C11.1877 8.84616 11.4176 7.41026 11.8774 6.23077C12.3882 5 12.9757 3.97436 13.6398 3.15385C14.355 2.28206 15.0702 1.58975 15.7854 1.07692C16.5517 0.564104 17.2158 0.205129 17.7778 0L19.6935 2.69231C18.5696 3.25641 17.6501 4.02564 16.9349 5C16.2708 5.92308 15.9387 7.10256 15.9387 8.53846C16.143 8.48718 16.424 8.46154 16.7816 8.46154C17.8033 8.46154 18.5951 8.82051 19.1571 9.53846C19.719 10.2564 20 11.1282 20 12.1538ZM8.81226 12.1538C8.81226 13.3333 8.42912 14.2821 7.66283 15C6.89655 15.6667 5.92593 16 4.75096 16C3.37165 16 2.22222 15.5385 1.30268 14.6154C0.434227 13.6923 0 12.3333 0 10.5385C0 8.84616 0.229885 7.41026 0.689655 6.23077C1.20051 5 1.78799 3.97436 2.45211 3.15385C3.1673 2.28206 3.8825 1.58975 4.5977 1.07692C5.36398 0.564104 6.0281 0.205129 6.59004 0L8.50575 2.69231C7.38187 3.25641 6.46232 4.02564 5.74713 5C5.08301 5.92308 4.75096 7.10256 4.75096 8.53846C4.9553 8.48718 5.23627 8.46154 5.59387 8.46154C6.61558 8.46154 7.40741 8.82051 7.96935 9.53846C8.53129 10.2564 8.81226 11.1282 8.81226 12.1538Z" fill="#4B4B4B"/>
</svg>
