<svg width="24" height="21" viewBox="0 0 24 21" xmlns="http://www.w3.org/2000/svg">
<path d="M1.79484 9.31574C1.79484 9.31574 11.9672 4.92532 15.4952 3.3794C16.8476 2.76103 21.4339 0.782249 21.4339 0.782249C21.4339 0.782249 23.5507 -0.0834678 23.3743 2.01899C23.3155 2.8847 22.8451 5.91471 22.3747 9.19207C21.6691 13.8298 20.9047 18.9005 20.9047 18.9005C20.9047 18.9005 20.7871 20.3227 19.7875 20.5701C18.7879 20.8174 17.1416 19.7043 16.8476 19.457C16.6124 19.2715 12.4376 16.4888 10.9088 15.1284C10.4972 14.7574 10.0268 14.0153 10.9676 13.1496C13.0844 11.109 15.6128 8.5737 17.1416 6.96594C17.8472 6.2239 18.5527 4.49246 15.6128 6.59492C11.438 9.62493 7.32201 12.4694 7.32201 12.4694C7.32201 12.4694 6.38121 13.0878 4.61722 12.5313C2.85323 11.9747 0.795243 11.2327 0.795243 11.2327C0.795243 11.2327 -0.61595 10.3051 1.79484 9.31574Z"/>
</svg>
