<svg width="22" height="22" viewBox="0 0 22 22" xmlns="http://www.w3.org/2000/svg">
<path fill-rule="evenodd" clip-rule="evenodd" d="M12.8751 4.3497C12.8751 4.84698 12.6776 5.32389 12.326 5.67552C11.9743 6.02715 11.4974 6.2247 11.0001 6.2247C10.5029 6.2247 10.026 6.02715 9.67432 5.67552C9.32269 5.32389 9.12515 4.84698 9.12515 4.3497C9.12515 3.85241 9.32269 3.3755 9.67432 3.02387C10.026 2.67224 10.5029 2.4747 11.0001 2.4747C11.4974 2.4747 11.9743 2.67224 12.326 3.02387C12.6776 3.3755 12.8751 3.85241 12.8751 4.3497ZM14.6751 6.2247C14.9957 5.59584 15.1496 4.89523 15.122 4.18991C15.0944 3.48459 14.8863 2.79815 14.5175 2.19627C14.1488 1.59438 13.6317 1.09719 13.0159 0.752258C12.4001 0.407327 11.706 0.226196 11.0001 0.226196C10.2943 0.226196 9.60023 0.407327 8.98439 0.752258C8.36855 1.09719 7.85152 1.59438 7.48278 2.19627C7.11403 2.79815 6.9059 3.48459 6.8783 4.18991C6.8507 4.89523 7.00456 5.59584 7.32515 6.2247H4.73015C4.38351 6.22491 4.04764 6.34516 3.77965 6.56503C3.51166 6.78489 3.32809 7.09078 3.26015 7.4307L0.860149 19.4307C0.816669 19.6482 0.82198 19.8727 0.8757 20.0879C0.929419 20.3032 1.03021 20.5038 1.17081 20.6754C1.31141 20.847 1.48832 20.9853 1.68879 21.0802C1.88927 21.1752 2.10831 21.2246 2.33015 21.2247H19.6701C19.892 21.2246 20.111 21.1752 20.3115 21.0802C20.512 20.9853 20.6889 20.847 20.8295 20.6754C20.9701 20.5038 21.0709 20.3032 21.1246 20.0879C21.1783 19.8727 21.1836 19.6482 21.1401 19.4307L18.7401 7.4307C18.6722 7.09078 18.4886 6.78489 18.2206 6.56503C17.9527 6.34516 17.6168 6.22491 17.2701 6.2247H14.6751ZM11.0001 8.4747H5.34515L3.24515 18.9747H18.7551L16.6551 8.4747H11.0001Z"/>
</svg>
