<svg width="26" height="26" viewBox="0 0 26 26" xmlns="http://www.w3.org/2000/svg">
<path d="M25.3846 12.9824C25.3846 19.8117 19.8059 25.3478 12.923 25.3478C10.738 25.3478 8.6852 24.7893 6.89926 23.8092L0 26.0016L2.24936 19.3672C1.11467 17.5039 0.461154 15.3186 0.461154 12.9824C0.461154 6.15308 6.04041 0.616974 12.923 0.616974C19.8065 0.616974 25.3846 6.15308 25.3846 12.9824ZM12.923 2.58626C7.14549 2.58626 2.44595 7.24997 2.44595 12.9824C2.44595 15.2571 3.18746 17.3638 4.44174 19.0775L3.13274 22.9385L7.15903 21.6588C8.81326 22.745 10.7949 23.3785 12.9233 23.3785C18.7 23.3785 23.4004 18.7154 23.4004 12.9829C23.4004 7.25054 18.7003 2.58626 12.923 2.58626ZM19.2159 15.8303C19.1389 15.7042 18.9355 15.628 18.6303 15.4766C18.3246 15.3251 16.8224 14.5915 16.5432 14.4908C16.2631 14.3898 16.0589 14.3391 15.8555 14.6423C15.6522 14.9457 15.0666 15.628 14.8881 15.8303C14.7098 16.033 14.5318 16.0584 14.2261 15.9067C13.9209 15.7552 12.9368 15.4348 11.77 14.4025C10.8621 13.5992 10.2489 12.6075 10.0706 12.3038C9.89267 12.0006 10.052 11.8367 10.2046 11.6858C10.3423 11.5498 10.5104 11.3318 10.6629 11.155C10.8161 10.9778 10.8669 10.8518 10.9681 10.6493C11.0705 10.447 11.0195 10.2702 10.9427 10.1182C10.8666 9.96669 10.2551 8.4752 10.0007 7.86823C9.74628 7.26182 9.49215 7.36279 9.31361 7.36279C9.13564 7.36279 8.93172 7.33741 8.72808 7.33741C8.52444 7.33741 8.19331 7.41328 7.91323 7.71649C7.63344 8.01997 6.84454 8.75331 6.84454 10.2445C6.84454 11.736 7.93861 13.177 8.09177 13.3789C8.24436 13.5809 10.2043 16.741 13.3097 17.9547C16.4154 19.1678 16.4154 18.763 16.9755 18.7123C17.5351 18.6618 18.7824 17.9792 19.0379 17.2718C19.2917 16.5633 19.2917 15.9566 19.2159 15.8303Z"/>
</svg>
